<svg width="153" height="52" viewBox="0 0 153 52" fill="none" xmlns="http://www.w3.org/2000/svg">
<path d="M21.712 22.557C21.712 23.6092 21.6038 24.6023 21.3875 25.5365C21.181 26.4608 20.8811 27.3163 20.4878 28.103C20.0944 28.8798 19.6126 29.578 19.0423 30.1975C18.4818 30.817 17.8475 31.348 17.1395 31.7905L22.5675 37.602H21.299C21.1023 37.602 20.9253 37.5725 20.768 37.5135C20.6107 37.4643 20.473 37.3709 20.355 37.2333L15.9005 32.4247C15.281 32.6804 14.6271 32.8771 13.9388 33.0148C13.2504 33.1524 12.5228 33.2213 11.7558 33.2213C10.2906 33.2213 8.94833 32.9705 7.729 32.469C6.50967 31.9577 5.46242 31.2398 4.58725 30.3155C3.71208 29.3813 3.02867 28.2603 2.537 26.9525C2.05517 25.6348 1.81425 24.1697 1.81425 22.557C1.81425 20.9542 2.05517 19.4988 2.537 18.191C3.02867 16.8733 3.71208 15.7523 4.58725 14.828C5.46242 13.8938 6.50967 13.1711 7.729 12.6597C8.94833 12.1484 10.2906 11.8927 11.7558 11.8927C13.2406 11.8927 14.5927 12.1484 15.812 12.6597C17.0313 13.1612 18.0786 13.8791 18.9538 14.8132C19.8289 15.7474 20.5074 16.8733 20.9893 18.191C21.4711 19.4988 21.712 20.9542 21.712 22.557ZM20.1485 22.557C20.1485 21.1017 19.9469 19.7938 19.5438 18.6335C19.1406 17.4732 18.5703 16.4898 17.8328 15.6835C17.1051 14.8772 16.225 14.2626 15.1925 13.8397C14.16 13.4071 13.0144 13.1907 11.7558 13.1907C10.5168 13.1907 9.381 13.4071 8.3485 13.8397C7.32583 14.2626 6.44083 14.8772 5.6935 15.6835C4.956 16.4898 4.38075 17.4732 3.96775 18.6335C3.56458 19.7938 3.363 21.1017 3.363 22.557C3.363 24.0222 3.56458 25.3349 3.96775 26.4952C4.38075 27.6457 4.956 28.6242 5.6935 29.4305C6.44083 30.2368 7.32583 30.8514 8.3485 31.2742C9.381 31.6971 10.5168 31.9085 11.7558 31.9085C13.0144 31.9085 14.16 31.6971 15.1925 31.2742C16.225 30.8514 17.1051 30.2368 17.8328 29.4305C18.5703 28.6242 19.1406 27.6457 19.5438 26.4952C19.9469 25.3349 20.1485 24.0222 20.1485 22.557ZM26.9734 18.3237V27.7047C26.9734 29.0814 27.288 30.1631 27.9174 30.9497C28.5467 31.7266 29.5055 32.115 30.7936 32.115C31.7475 32.115 32.6374 31.8741 33.4634 31.3922C34.2894 30.9006 35.0318 30.2221 35.6906 29.3567V18.3237H37.1066V33H36.3249C36.0495 33 35.907 32.8722 35.8971 32.6165L35.7644 30.4335C35.0859 31.2792 34.2992 31.9577 33.4044 32.469C32.5194 32.9803 31.5311 33.236 30.4396 33.236C29.6235 33.236 28.9105 33.1082 28.3009 32.8525C27.6912 32.5968 27.1848 32.2281 26.7816 31.7462C26.3785 31.2644 26.0736 30.6842 25.8671 30.0057C25.6606 29.3272 25.5574 28.5602 25.5574 27.7047V18.3237H26.9734ZM47.4173 18.0877C48.2433 18.0877 49.0054 18.2303 49.7036 18.5155C50.4116 18.8007 51.0213 19.2186 51.5326 19.7692C52.0538 20.3101 52.4569 20.9787 52.7421 21.7752C53.0371 22.5717 53.1846 23.4862 53.1846 24.5187C53.1846 24.7351 53.1502 24.8826 53.0813 24.9612C53.0223 25.0399 52.924 25.0792 52.7863 25.0792H42.1811V25.3595C42.1811 26.4608 42.3089 27.4294 42.5646 28.2652C42.8203 29.1011 43.1841 29.8042 43.6561 30.3745C44.1281 30.935 44.6984 31.3578 45.3671 31.643C46.0358 31.9282 46.7831 32.0707 47.6091 32.0707C48.3466 32.0707 48.9858 31.9921 49.5266 31.8347C50.0674 31.6676 50.5198 31.4857 50.8836 31.289C51.2573 31.0825 51.5523 30.9006 51.7686 30.7432C51.9849 30.5761 52.1423 30.4925 52.2406 30.4925C52.3684 30.4925 52.4668 30.5417 52.5356 30.64L52.9191 31.112C52.6831 31.407 52.3684 31.6823 51.9751 31.938C51.5916 32.1937 51.1589 32.4149 50.6771 32.6017C50.2051 32.7787 49.6938 32.9213 49.1431 33.0295C48.6023 33.1377 48.0565 33.1918 47.5058 33.1918C46.5028 33.1918 45.5883 33.0197 44.7623 32.6755C43.9363 32.3215 43.2283 31.8102 42.6383 31.1415C42.0483 30.4728 41.5911 29.6567 41.2666 28.693C40.9519 27.7195 40.7946 26.6083 40.7946 25.3595C40.7946 24.3073 40.9421 23.3387 41.2371 22.4537C41.5419 21.5589 41.9746 20.7919 42.5351 20.1527C43.1054 19.5037 43.7987 18.9973 44.6148 18.6335C45.4408 18.2697 46.375 18.0877 47.4173 18.0877ZM47.4321 19.135C46.6749 19.135 45.9964 19.253 45.3966 19.489C44.7968 19.725 44.2756 20.0642 43.8331 20.5067C43.4004 20.9492 43.0464 21.4802 42.7711 22.0997C42.5056 22.7192 42.3286 23.4125 42.2401 24.1795H51.9161C51.9161 23.3928 51.8079 22.6897 51.5916 22.0702C51.3753 21.4409 51.0704 20.9099 50.6771 20.4772C50.2838 20.0446 49.8118 19.7152 49.2611 19.489C48.7104 19.253 48.1008 19.135 47.4321 19.135ZM50.7361 11.8927L47.5501 15.6245C47.4714 15.7228 47.3878 15.7917 47.2993 15.831C47.2207 15.8605 47.1223 15.8752 47.0043 15.8752H46.1636L48.4793 12.3647C48.5875 12.1877 48.7006 12.0648 48.8186 11.996C48.9366 11.9272 49.1136 11.8927 49.3496 11.8927H50.7361Z" fill="#666947"/>
<path d="M100.051 20.2855C100.002 20.3347 99.9524 20.3789 99.9033 20.4182C99.8639 20.4477 99.8049 20.4625 99.7263 20.4625C99.6279 20.4625 99.4903 20.3986 99.3133 20.2707C99.1461 20.1331 98.9199 19.9856 98.6348 19.8282C98.3496 19.6709 97.9907 19.5283 97.558 19.4005C97.1352 19.2628 96.6189 19.194 96.0093 19.194C95.1636 19.194 94.4113 19.3464 93.7525 19.6512C93.1035 19.9462 92.5528 20.374 92.1005 20.9345C91.658 21.495 91.3188 22.1735 91.0828 22.97C90.8468 23.7665 90.7288 24.6613 90.7288 25.6545C90.7288 26.687 90.8468 27.6015 91.0828 28.398C91.3286 29.1945 91.6728 29.8681 92.1153 30.4187C92.5578 30.9596 93.0937 31.3726 93.723 31.6577C94.3523 31.9429 95.0505 32.0855 95.8175 32.0855C96.5255 32.0855 97.1155 32.0019 97.5875 31.8347C98.0693 31.6676 98.4627 31.4857 98.7675 31.289C99.0822 31.0923 99.328 30.9104 99.505 30.7432C99.6918 30.5761 99.8393 30.4925 99.9475 30.4925C100.075 30.4925 100.174 30.5417 100.243 30.64L100.626 31.112C100.4 31.407 100.115 31.6823 99.7705 31.938C99.4263 32.1937 99.0379 32.4149 98.6053 32.6017C98.1726 32.7886 97.7006 32.9312 97.1893 33.0295C96.6878 33.1377 96.1617 33.1918 95.611 33.1918C94.6768 33.1918 93.8213 33.0246 93.0445 32.6902C92.2775 32.3461 91.6138 31.8544 91.0533 31.2152C90.5026 30.5662 90.0699 29.7747 89.7553 28.8405C89.4504 27.9063 89.298 26.8443 89.298 25.6545C89.298 24.5335 89.4455 23.5108 89.7405 22.5865C90.0355 21.6622 90.4633 20.8657 91.0238 20.197C91.5941 19.5283 92.2873 19.0121 93.1035 18.6482C93.9295 18.2746 94.8735 18.0877 95.9355 18.0877C96.8893 18.0877 97.735 18.2402 98.4725 18.545C99.2198 18.8498 99.8688 19.2628 100.42 19.784L100.051 20.2855ZM110.585 18.0877C111.637 18.0877 112.576 18.2697 113.402 18.6335C114.238 18.9875 114.941 19.4939 115.511 20.1527C116.081 20.8116 116.514 21.6081 116.809 22.5422C117.114 23.4666 117.266 24.504 117.266 25.6545C117.266 26.805 117.114 27.8424 116.809 28.7667C116.514 29.6911 116.081 30.4827 115.511 31.1415C114.941 31.8003 114.238 32.3067 113.402 32.6607C112.576 33.0147 111.637 33.1918 110.585 33.1918C109.532 33.1918 108.588 33.0147 107.753 32.6607C106.927 32.3067 106.223 31.8003 105.643 31.1415C105.073 30.4827 104.635 29.6911 104.331 28.7667C104.036 27.8424 103.888 26.805 103.888 25.6545C103.888 24.504 104.036 23.4666 104.331 22.5422C104.635 21.6081 105.073 20.8116 105.643 20.1527C106.223 19.4939 106.927 18.9875 107.753 18.6335C108.588 18.2697 109.532 18.0877 110.585 18.0877ZM110.585 32.0855C111.46 32.0855 112.222 31.938 112.871 31.643C113.53 31.3382 114.075 30.9055 114.508 30.345C114.951 29.7845 115.28 29.1109 115.496 28.3242C115.713 27.5277 115.821 26.6378 115.821 25.6545C115.821 24.681 115.713 23.796 115.496 22.9995C115.28 22.203 114.951 21.5245 114.508 20.964C114.075 20.3937 113.53 19.9561 112.871 19.6512C112.222 19.3464 111.46 19.194 110.585 19.194C109.709 19.194 108.942 19.3464 108.284 19.6512C107.635 19.9561 107.089 20.3937 106.646 20.964C106.214 21.5245 105.884 22.203 105.658 22.9995C105.442 23.796 105.334 24.681 105.334 25.6545C105.334 26.6378 105.442 27.5277 105.658 28.3242C105.884 29.1109 106.214 29.7845 106.646 30.345C107.089 30.9055 107.635 31.3382 108.284 31.643C108.942 31.938 109.709 32.0855 110.585 32.0855ZM122.134 33V18.3237H122.901C123.157 18.3237 123.304 18.4467 123.344 18.6925L123.477 20.905C124.145 20.0593 124.922 19.3808 125.807 18.8695C126.702 18.3483 127.695 18.0877 128.787 18.0877C129.593 18.0877 130.301 18.2156 130.911 18.4712C131.53 18.7269 132.041 19.0957 132.445 19.5775C132.848 20.0593 133.153 20.6395 133.359 21.318C133.566 21.9965 133.669 22.7635 133.669 23.619V33H132.268V23.619C132.268 22.2423 131.953 21.1656 131.324 20.3887C130.694 19.6021 129.731 19.2087 128.433 19.2087C127.469 19.2087 126.574 19.4595 125.748 19.961C124.922 20.4527 124.185 21.1312 123.536 21.9965V33H122.134ZM129.539 14.12C129.962 14.12 130.281 13.9872 130.498 13.7217C130.714 13.4464 130.827 13.0777 130.837 12.6155H131.707C131.707 12.9695 131.658 13.3038 131.56 13.6185C131.471 13.9233 131.333 14.1888 131.147 14.415C130.97 14.6412 130.748 14.8182 130.483 14.946C130.217 15.0738 129.917 15.1377 129.583 15.1377C129.259 15.1377 128.949 15.0591 128.654 14.9017C128.369 14.7346 128.093 14.5576 127.828 14.3707C127.562 14.1741 127.302 13.9971 127.046 13.8397C126.8 13.6726 126.549 13.589 126.294 13.589C125.881 13.589 125.566 13.7316 125.35 14.0167C125.133 14.2921 125.015 14.651 124.996 15.0935H124.096C124.096 14.7395 124.145 14.4101 124.244 14.1052C124.342 13.7906 124.484 13.5202 124.671 13.294C124.858 13.0678 125.084 12.8908 125.35 12.763C125.615 12.6352 125.915 12.5712 126.25 12.5712C126.584 12.5712 126.894 12.6548 127.179 12.822C127.474 12.9793 127.749 13.1563 128.005 13.353C128.27 13.5398 128.526 13.7168 128.772 13.884C129.027 14.0413 129.283 14.12 129.539 14.12ZM144.864 18.0877C145.917 18.0877 146.856 18.2697 147.682 18.6335C148.518 18.9875 149.221 19.4939 149.791 20.1527C150.361 20.8116 150.794 21.6081 151.089 22.5422C151.394 23.4666 151.546 24.504 151.546 25.6545C151.546 26.805 151.394 27.8424 151.089 28.7667C150.794 29.6911 150.361 30.4827 149.791 31.1415C149.221 31.8003 148.518 32.3067 147.682 32.6607C146.856 33.0147 145.917 33.1918 144.864 33.1918C143.812 33.1918 142.868 33.0147 142.032 32.6607C141.206 32.3067 140.503 31.8003 139.923 31.1415C139.353 30.4827 138.915 29.6911 138.61 28.7667C138.315 27.8424 138.168 26.805 138.168 25.6545C138.168 24.504 138.315 23.4666 138.61 22.5422C138.915 21.6081 139.353 20.8116 139.923 20.1527C140.503 19.4939 141.206 18.9875 142.032 18.6335C142.868 18.2697 143.812 18.0877 144.864 18.0877ZM144.864 32.0855C145.74 32.0855 146.502 31.938 147.151 31.643C147.81 31.3382 148.355 30.9055 148.788 30.345C149.23 29.7845 149.56 29.1109 149.776 28.3242C149.993 27.5277 150.101 26.6378 150.101 25.6545C150.101 24.681 149.993 23.796 149.776 22.9995C149.56 22.203 149.23 21.5245 148.788 20.964C148.355 20.3937 147.81 19.9561 147.151 19.6512C146.502 19.3464 145.74 19.194 144.864 19.194C143.989 19.194 143.222 19.3464 142.563 19.6512C141.914 19.9561 141.369 20.3937 140.926 20.964C140.494 21.5245 140.164 22.203 139.938 22.9995C139.722 23.796 139.613 24.681 139.613 25.6545C139.613 26.6378 139.722 27.5277 139.938 28.3242C140.164 29.1109 140.494 29.7845 140.926 30.345C141.369 30.9055 141.914 31.3382 142.563 31.643C143.222 31.938 143.989 32.0855 144.864 32.0855Z" fill="#666947"/>
<path d="M5.89579 38.6655C6.30205 38.6655 6.67688 38.7356 7.02027 38.8759C7.3685 39.0161 7.66836 39.2217 7.91985 39.4925C8.17619 39.7585 8.37448 40.0874 8.51474 40.4792C8.65984 40.8709 8.73238 41.3207 8.73238 41.8285C8.73238 41.9349 8.71546 42.0075 8.6816 42.0462C8.65258 42.0849 8.60422 42.1042 8.53651 42.1042H3.32036V42.2421C3.32036 42.7837 3.38323 43.2601 3.50898 43.6712C3.63473 44.0823 3.81368 44.4281 4.04583 44.7087C4.27798 44.9843 4.5585 45.1923 4.88738 45.3326C5.21626 45.4728 5.58383 45.543 5.9901 45.543C6.35283 45.543 6.6672 45.5043 6.93321 45.4269C7.19922 45.3447 7.4217 45.2552 7.60065 45.1585C7.78443 45.0569 7.92953 44.9674 8.03593 44.89C8.14233 44.8078 8.21972 44.7667 8.26808 44.7667C8.33095 44.7667 8.37932 44.7909 8.41318 44.8392L8.6018 45.0714C8.48572 45.2165 8.33095 45.3519 8.1375 45.4777C7.94887 45.6034 7.73607 45.7122 7.49908 45.8041C7.26693 45.8912 7.01543 45.9613 6.74459 46.0145C6.47858 46.0677 6.21016 46.0943 5.93931 46.0943C5.44599 46.0943 4.9962 46.0097 4.58994 45.8404C4.18367 45.6663 3.83544 45.4148 3.54526 45.0859C3.25507 44.757 3.03017 44.3556 2.87057 43.8816C2.7158 43.4028 2.63842 42.8563 2.63842 42.2421C2.63842 41.7246 2.71096 41.2482 2.85606 40.8129C3.00599 40.3728 3.21879 39.9955 3.49447 39.6811C3.77499 39.3619 4.11596 39.1128 4.51739 38.9339C4.92365 38.755 5.38312 38.6655 5.89579 38.6655ZM5.90304 39.1806C5.53063 39.1806 5.19691 39.2386 4.90189 39.3547C4.60686 39.4707 4.35053 39.6376 4.13289 39.8552C3.92008 40.0729 3.74597 40.3341 3.61055 40.6388C3.47996 40.9435 3.39291 41.2844 3.34938 41.6617H8.10848C8.10848 41.2748 8.05528 40.9289 7.94887 40.6243C7.84247 40.3147 7.69254 40.0535 7.49908 39.8407C7.30562 39.6279 7.07347 39.4659 6.80263 39.3547C6.53178 39.2386 6.23192 39.1806 5.90304 39.1806ZM15.8673 39.6739C15.8334 39.7416 15.7802 39.7754 15.7077 39.7754C15.6545 39.7754 15.5844 39.7464 15.4973 39.6884C15.4151 39.6255 15.3038 39.5578 15.1636 39.4853C15.0282 39.4079 14.8589 39.3402 14.6558 39.2821C14.4575 39.2193 14.2132 39.1878 13.923 39.1878C13.6619 39.1878 13.4224 39.2265 13.2048 39.3039C12.992 39.3764 12.8082 39.4756 12.6534 39.6013C12.5035 39.7271 12.385 39.8746 12.298 40.0439C12.2157 40.2083 12.1746 40.3824 12.1746 40.5662C12.1746 40.7935 12.2327 40.9822 12.3487 41.1321C12.4648 41.282 12.6172 41.4102 12.8058 41.5166C12.9944 41.623 13.2072 41.7149 13.4442 41.7923C13.686 41.8696 13.9327 41.947 14.1842 42.0244C14.4357 42.1018 14.6799 42.1889 14.9169 42.2856C15.1587 42.3775 15.374 42.4936 15.5626 42.6338C15.7512 42.7741 15.9036 42.9458 16.0196 43.1489C16.1357 43.352 16.1938 43.5987 16.1938 43.8889C16.1938 44.2032 16.1357 44.4959 16.0196 44.7667C15.9084 45.0375 15.744 45.2721 15.5263 45.4704C15.3135 45.6687 15.0499 45.8259 14.7356 45.942C14.4212 46.058 14.0633 46.1161 13.6619 46.1161C13.154 46.1161 12.7163 46.0363 12.3487 45.8767C11.9812 45.7122 11.6523 45.4994 11.3621 45.2383L11.529 44.9916C11.5531 44.9529 11.5797 44.9239 11.6088 44.9045C11.6378 44.8852 11.6789 44.8755 11.7321 44.8755C11.795 44.8755 11.8724 44.9142 11.9642 44.9916C12.0561 45.069 12.1746 45.1536 12.3197 45.2455C12.4697 45.3326 12.6534 45.4148 12.8711 45.4922C13.0936 45.5696 13.3668 45.6082 13.6909 45.6082C13.9956 45.6082 14.264 45.5671 14.4961 45.4849C14.7283 45.3979 14.9218 45.2818 15.0765 45.1367C15.2313 44.9916 15.3474 44.8223 15.4248 44.6289C15.507 44.4306 15.5481 44.2226 15.5481 44.005C15.5481 43.7631 15.49 43.5624 15.374 43.4028C15.2579 43.2432 15.1055 43.1078 14.9169 42.9965C14.7283 42.8853 14.5131 42.791 14.2713 42.7136C14.0343 42.6362 13.7876 42.5588 13.5313 42.4815C13.2798 42.4041 13.0331 42.3194 12.7913 42.2275C12.5543 42.1357 12.3415 42.0196 12.1529 41.8793C11.9642 41.7391 11.8119 41.5698 11.6958 41.3715C11.5797 41.1684 11.5217 40.9169 11.5217 40.617C11.5217 40.3607 11.5773 40.114 11.6886 39.877C11.7998 39.64 11.957 39.4321 12.1601 39.2531C12.3681 39.0742 12.6196 38.9315 12.9146 38.8251C13.2096 38.7187 13.5409 38.6655 13.9085 38.6655C14.3486 38.6655 14.738 38.7283 15.0765 38.8541C15.4199 38.9798 15.7343 39.1733 16.0196 39.4345L15.8673 39.6739ZM21.4054 46.1161C20.9169 46.1161 20.5348 45.9807 20.2591 45.7098C19.9883 45.439 19.8529 45.0206 19.8529 44.4547V39.5215H18.8154C18.7622 39.5215 18.7187 39.507 18.6848 39.478C18.651 39.449 18.6341 39.4079 18.6341 39.3547V39.0862L19.8674 38.9992L20.0415 36.4165C20.0463 36.373 20.0632 36.3343 20.0923 36.3004C20.1261 36.2666 20.1696 36.2497 20.2228 36.2497H20.5493V39.0064H22.82V39.5215H20.5493V44.4185C20.5493 44.6168 20.5735 44.7885 20.6219 44.9336C20.6751 45.0738 20.7452 45.1899 20.8322 45.2818C20.9241 45.3737 21.0305 45.4414 21.1514 45.4849C21.2724 45.5284 21.4029 45.5502 21.5432 45.5502C21.7173 45.5502 21.8672 45.526 21.993 45.4777C22.1187 45.4245 22.2276 45.3688 22.3195 45.3108C22.4114 45.2479 22.4863 45.1923 22.5444 45.1439C22.6024 45.0907 22.6483 45.0641 22.6822 45.0641C22.7209 45.0641 22.7596 45.0883 22.7983 45.1367L22.9869 45.4414C22.8031 45.6445 22.5685 45.809 22.2832 45.9347C22.0027 46.0556 21.7101 46.1161 21.4054 46.1161ZM30.5165 46C30.3714 46 30.2819 45.9323 30.2481 45.7969L30.1465 44.8755C29.9482 45.069 29.7499 45.2431 29.5516 45.3979C29.3582 45.5526 29.155 45.6832 28.9422 45.7896C28.7294 45.896 28.4997 45.9758 28.253 46.029C28.0064 46.0871 27.7355 46.1161 27.4405 46.1161C27.1938 46.1161 26.9544 46.0798 26.7223 46.0073C26.4901 45.9347 26.2846 45.8235 26.1056 45.6735C25.9267 45.5236 25.7816 45.3326 25.6703 45.1004C25.5639 44.8634 25.5107 44.5805 25.5107 44.2516C25.5107 43.9469 25.5978 43.664 25.7719 43.4028C25.946 43.1416 26.2169 42.9143 26.5844 42.7209C26.9568 42.5274 27.4332 42.3726 28.0136 42.2566C28.5988 42.1405 29.3001 42.0728 30.1175 42.0534V41.2989C30.1175 40.6315 29.9724 40.1188 29.6822 39.7609C29.3969 39.3982 28.9712 39.2168 28.4054 39.2168C28.0571 39.2168 27.7597 39.2652 27.513 39.3619C27.2712 39.4587 27.0657 39.5651 26.8964 39.6811C26.7271 39.7972 26.5893 39.9036 26.4829 40.0003C26.3765 40.0971 26.287 40.1454 26.2144 40.1454C26.1177 40.1454 26.0452 40.1019 25.9968 40.0149L25.8735 39.8045C26.2507 39.4272 26.6473 39.1419 27.0633 38.9484C27.4792 38.7549 27.9507 38.6582 28.4779 38.6582C28.8648 38.6582 29.2034 38.7211 29.4936 38.8468C29.7838 38.9678 30.0232 39.1443 30.2118 39.3764C30.4053 39.6038 30.5504 39.8819 30.6471 40.2107C30.7438 40.5348 30.7922 40.8975 30.7922 41.2989V46H30.5165ZM27.6146 45.6155C27.8951 45.6155 28.1515 45.5865 28.3836 45.5284C28.6206 45.4656 28.8382 45.3809 29.0365 45.2745C29.2397 45.1633 29.4283 45.0327 29.6024 44.8828C29.7765 44.7328 29.9482 44.5708 30.1175 44.3967V42.5177C29.4307 42.5371 28.8382 42.5903 28.3401 42.6773C27.8468 42.7596 27.4381 42.8732 27.114 43.0183C26.7948 43.1634 26.5578 43.3375 26.4031 43.5406C26.2531 43.7389 26.1782 43.9663 26.1782 44.2226C26.1782 44.4644 26.2169 44.6748 26.2943 44.8538C26.3765 45.0279 26.4829 45.173 26.6135 45.289C26.744 45.4003 26.8964 45.4825 27.0705 45.5357C27.2446 45.5889 27.426 45.6155 27.6146 45.6155ZM34.3445 46V35.4444H35.041V40.0439C35.3602 39.6183 35.7302 39.2821 36.1509 39.0355C36.5717 38.7888 37.0457 38.6655 37.5729 38.6655C38.4579 38.6655 39.1471 38.9726 39.6404 39.5868C40.1386 40.1962 40.3877 41.1152 40.3877 42.3436C40.3877 42.8708 40.3176 43.3641 40.1773 43.8236C40.0419 44.2782 39.8387 44.6748 39.5679 45.0134C39.3019 45.3471 38.973 45.6107 38.5813 45.8041C38.1943 45.9976 37.747 46.0943 37.2391 46.0943C36.7361 46.0943 36.3033 45.9976 35.9405 45.8041C35.5778 45.6058 35.2658 45.3156 35.0047 44.9336L34.9612 45.8186C34.9466 45.9395 34.8813 46 34.7653 46H34.3445ZM37.377 39.2168C36.8982 39.2168 36.4653 39.3402 36.0784 39.5868C35.6915 39.8335 35.3457 40.1769 35.041 40.617V44.4257C35.3166 44.8417 35.6213 45.1343 35.955 45.3035C36.2888 45.468 36.6733 45.5502 37.1085 45.5502C37.5342 45.5502 37.9066 45.4728 38.2258 45.3181C38.545 45.1633 38.811 44.9456 39.0238 44.6651C39.2414 44.3798 39.4035 44.0412 39.5099 43.6495C39.6211 43.2529 39.6767 42.8176 39.6767 42.3436C39.6767 41.2699 39.4784 40.4816 39.0818 39.9786C38.6852 39.4707 38.117 39.2168 37.377 39.2168ZM48.1052 46C47.9601 46 47.8707 45.9323 47.8368 45.7969L47.7352 44.8755C47.5369 45.069 47.3387 45.2431 47.1404 45.3979C46.9469 45.5526 46.7438 45.6832 46.531 45.7896C46.3182 45.896 46.0884 45.9758 45.8418 46.029C45.5951 46.0871 45.3243 46.1161 45.0292 46.1161C44.7826 46.1161 44.5432 46.0798 44.311 46.0073C44.0789 45.9347 43.8733 45.8235 43.6944 45.6735C43.5154 45.5236 43.3703 45.3326 43.2591 45.1004C43.1527 44.8634 43.0995 44.5805 43.0995 44.2516C43.0995 43.9469 43.1865 43.664 43.3606 43.4028C43.5348 43.1416 43.8056 42.9143 44.1732 42.7209C44.5456 42.5274 45.022 42.3726 45.6024 42.2566C46.1876 42.1405 46.8889 42.0728 47.7062 42.0534V41.2989C47.7062 40.6315 47.5611 40.1188 47.2709 39.7609C46.9856 39.3982 46.56 39.2168 45.9941 39.2168C45.6459 39.2168 45.3484 39.2652 45.1018 39.3619C44.86 39.4587 44.6544 39.5651 44.4851 39.6811C44.3158 39.7972 44.178 39.9036 44.0716 40.0003C43.9652 40.0971 43.8757 40.1454 43.8032 40.1454C43.7065 40.1454 43.6339 40.1019 43.5855 40.0149L43.4622 39.8045C43.8395 39.4272 44.236 39.1419 44.652 38.9484C45.0679 38.7549 45.5395 38.6582 46.0667 38.6582C46.4536 38.6582 46.7921 38.7211 47.0823 38.8468C47.3725 38.9678 47.6119 39.1443 47.8005 39.3764C47.994 39.6038 48.1391 39.8819 48.2358 40.2107C48.3325 40.5348 48.3809 40.8975 48.3809 41.2989V46H48.1052ZM45.2033 45.6155C45.4839 45.6155 45.7402 45.5865 45.9723 45.5284C46.2093 45.4656 46.427 45.3809 46.6253 45.2745C46.8284 45.1633 47.017 45.0327 47.1911 44.8828C47.3653 44.7328 47.5369 44.5708 47.7062 44.3967V42.5177C47.0194 42.5371 46.427 42.5903 45.9288 42.6773C45.4355 42.7596 45.0268 42.8732 44.7028 43.0183C44.3836 43.1634 44.1466 43.3375 43.9918 43.5406C43.8419 43.7389 43.7669 43.9663 43.7669 44.2226C43.7669 44.4644 43.8056 44.6748 43.883 44.8538C43.9652 45.0279 44.0716 45.173 44.2022 45.289C44.3328 45.4003 44.4851 45.4825 44.6592 45.5357C44.8334 45.5889 45.0147 45.6155 45.2033 45.6155Z" fill="#666947"/>
<path d="M96.1753 46V35.444H96.8645V40.0146C97.1983 39.6035 97.5779 39.277 98.0036 39.0352C98.434 38.7885 98.9153 38.6652 99.4473 38.6652C99.8439 38.6652 100.192 38.7281 100.492 38.8538C100.797 38.9796 101.048 39.161 101.247 39.3979C101.445 39.6349 101.595 39.9203 101.696 40.254C101.798 40.5878 101.849 40.965 101.849 41.3858V46H101.159V41.3858C101.159 40.7087 101.005 40.1791 100.695 39.797C100.386 39.41 99.9116 39.2166 99.2732 39.2166C98.7992 39.2166 98.3591 39.3399 97.9528 39.5866C97.5465 39.8284 97.1838 40.1621 96.8645 40.5878V46H96.1753ZM108.632 46C108.487 46 108.398 45.9323 108.364 45.7969L108.262 44.8755C108.064 45.0689 107.866 45.2431 107.667 45.3978C107.474 45.5526 107.271 45.6832 107.058 45.7896C106.845 45.896 106.615 45.9758 106.369 46.029C106.122 46.0871 105.851 46.1161 105.556 46.1161C105.31 46.1161 105.07 46.0798 104.838 46.0073C104.606 45.9347 104.4 45.8235 104.221 45.6735C104.042 45.5236 103.897 45.3325 103.786 45.1004C103.68 44.8634 103.626 44.5804 103.626 44.2515C103.626 43.9468 103.713 43.6639 103.888 43.4027C104.062 43.1415 104.333 42.9142 104.7 42.7207C105.073 42.5273 105.549 42.3725 106.129 42.2564C106.715 42.1403 107.416 42.0726 108.233 42.0533V41.2988C108.233 40.6313 108.088 40.1186 107.798 39.7607C107.513 39.3979 107.087 39.2166 106.521 39.2166C106.173 39.2166 105.875 39.2649 105.629 39.3617C105.387 39.4584 105.181 39.5648 105.012 39.6809C104.843 39.797 104.705 39.9034 104.599 40.0001C104.492 40.0968 104.403 40.1452 104.33 40.1452C104.233 40.1452 104.161 40.1017 104.113 40.0146L103.989 39.8042C104.366 39.427 104.763 39.1416 105.179 38.9481C105.595 38.7547 106.067 38.6579 106.594 38.6579C106.981 38.6579 107.319 38.7208 107.609 38.8466C107.9 38.9675 108.139 39.144 108.328 39.3762C108.521 39.6035 108.666 39.8816 108.763 40.2105C108.86 40.5346 108.908 40.8973 108.908 41.2988V46H108.632ZM105.73 45.6155C106.011 45.6155 106.267 45.5865 106.499 45.5284C106.736 45.4655 106.954 45.3809 107.152 45.2745C107.355 45.1633 107.544 45.0327 107.718 44.8827C107.892 44.7328 108.064 44.5708 108.233 44.3966V42.5176C107.547 42.5369 106.954 42.5901 106.456 42.6772C105.963 42.7594 105.554 42.8731 105.23 43.0182C104.911 43.1633 104.674 43.3374 104.519 43.5406C104.369 43.7389 104.294 43.9662 104.294 44.2225C104.294 44.4644 104.333 44.6748 104.41 44.8537C104.492 45.0278 104.599 45.1729 104.729 45.289C104.86 45.4003 105.012 45.4825 105.186 45.5357C105.36 45.5889 105.542 45.6155 105.73 45.6155ZM115.834 39.7462C115.81 39.7704 115.786 39.7921 115.762 39.8115C115.742 39.826 115.713 39.8332 115.674 39.8332C115.626 39.8332 115.558 39.8018 115.471 39.7389C115.389 39.6712 115.278 39.5987 115.138 39.5213C114.997 39.4439 114.821 39.3738 114.608 39.3109C114.4 39.2432 114.146 39.2093 113.846 39.2093C113.43 39.2093 113.06 39.2843 112.736 39.4342C112.417 39.5793 112.146 39.7897 111.924 40.0654C111.706 40.3411 111.539 40.6748 111.423 41.0666C111.307 41.4584 111.249 41.8985 111.249 42.387C111.249 42.8949 111.307 43.3447 111.423 43.7364C111.544 44.1282 111.713 44.4595 111.931 44.7304C112.149 44.9964 112.412 45.1995 112.722 45.3398C113.031 45.4801 113.375 45.5502 113.752 45.5502C114.1 45.5502 114.39 45.5091 114.623 45.4269C114.86 45.3446 115.053 45.2552 115.203 45.1584C115.358 45.0617 115.479 44.9722 115.566 44.89C115.658 44.8078 115.73 44.7666 115.783 44.7666C115.846 44.7666 115.895 44.7908 115.928 44.8392L116.117 45.0714C116.006 45.2165 115.866 45.3519 115.696 45.4776C115.527 45.6034 115.336 45.7122 115.123 45.8041C114.91 45.896 114.678 45.9661 114.427 46.0145C114.18 46.0677 113.921 46.0943 113.65 46.0943C113.191 46.0943 112.77 46.0121 112.388 45.8476C112.011 45.6784 111.684 45.4365 111.409 45.1221C111.138 44.8029 110.925 44.4136 110.77 43.9541C110.62 43.4946 110.545 42.9722 110.545 42.387C110.545 41.8356 110.618 41.3326 110.763 40.878C110.908 40.4233 111.118 40.0316 111.394 39.7027C111.675 39.3738 112.016 39.1198 112.417 38.9409C112.823 38.7571 113.288 38.6652 113.81 38.6652C114.279 38.6652 114.695 38.7402 115.058 38.8901C115.425 39.04 115.745 39.2432 116.015 39.4995L115.834 39.7462ZM118.578 38.7813V46H117.888V38.7813H118.578ZM118.882 36.2928C118.882 36.3799 118.863 36.4621 118.824 36.5395C118.79 36.612 118.744 36.6773 118.686 36.7354C118.628 36.7934 118.561 36.8394 118.483 36.8732C118.406 36.9071 118.324 36.924 118.237 36.924C118.15 36.924 118.067 36.9071 117.99 36.8732C117.913 36.8394 117.845 36.7934 117.787 36.7354C117.729 36.6773 117.683 36.612 117.649 36.5395C117.615 36.4621 117.598 36.3799 117.598 36.2928C117.598 36.2057 117.615 36.1235 117.649 36.0461C117.683 35.9639 117.729 35.8938 117.787 35.8357C117.845 35.7777 117.913 35.7318 117.99 35.6979C118.067 35.664 118.15 35.6471 118.237 35.6471C118.324 35.6471 118.406 35.664 118.483 35.6979C118.561 35.7318 118.628 35.7777 118.686 35.8357C118.744 35.8938 118.79 35.9639 118.824 36.0461C118.863 36.1235 118.882 36.2057 118.882 36.2928ZM123.849 38.6652C124.255 38.6652 124.63 38.7353 124.974 38.8756C125.322 39.0159 125.622 39.2214 125.873 39.4923C126.13 39.7583 126.328 40.0872 126.468 40.4789C126.613 40.8707 126.686 41.3205 126.686 41.8284C126.686 41.9348 126.669 42.0073 126.635 42.046C126.606 42.0847 126.558 42.1041 126.49 42.1041H121.274V42.2419C121.274 42.7836 121.337 43.26 121.462 43.6711C121.588 44.0823 121.767 44.4281 121.999 44.7086C122.231 44.9843 122.512 45.1923 122.841 45.3325C123.17 45.4728 123.537 45.5429 123.943 45.5429C124.306 45.5429 124.621 45.5042 124.887 45.4269C125.153 45.3446 125.375 45.2552 125.554 45.1584C125.738 45.0568 125.883 44.9674 125.989 44.89C126.096 44.8078 126.173 44.7666 126.222 44.7666C126.284 44.7666 126.333 44.7908 126.367 44.8392L126.555 45.0714C126.439 45.2165 126.284 45.3519 126.091 45.4776C125.902 45.6034 125.69 45.7122 125.453 45.8041C125.22 45.8912 124.969 45.9613 124.698 46.0145C124.432 46.0677 124.164 46.0943 123.893 46.0943C123.399 46.0943 122.95 46.0097 122.543 45.8404C122.137 45.6663 121.789 45.4148 121.499 45.0859C121.208 44.757 120.983 44.3555 120.824 43.8815C120.669 43.4027 120.592 42.8562 120.592 42.2419C120.592 41.7244 120.664 41.248 120.809 40.8127C120.959 40.3725 121.172 39.9953 121.448 39.6809C121.728 39.3617 122.069 39.1126 122.471 38.9336C122.877 38.7547 123.336 38.6652 123.849 38.6652ZM123.856 39.1803C123.484 39.1803 123.15 39.2383 122.855 39.3544C122.56 39.4705 122.304 39.6374 122.086 39.855C121.873 40.0727 121.699 40.3338 121.564 40.6386C121.433 40.9433 121.346 41.2842 121.303 41.6615H126.062C126.062 41.2746 126.009 40.9288 125.902 40.624C125.796 40.3145 125.646 40.0533 125.453 39.8405C125.259 39.6277 125.027 39.4657 124.756 39.3544C124.485 39.2383 124.185 39.1803 123.856 39.1803ZM128.539 46V38.7813H128.917C129.042 38.7813 129.115 38.8417 129.134 38.9626L129.2 40.0509C129.529 39.6349 129.911 39.3012 130.346 39.0497C130.786 38.7934 131.275 38.6652 131.811 38.6652C132.208 38.6652 132.556 38.7281 132.856 38.8538C133.161 38.9796 133.412 39.161 133.611 39.3979C133.809 39.6349 133.959 39.9203 134.06 40.254C134.162 40.5878 134.213 40.965 134.213 41.3858V46H133.524V41.3858C133.524 40.7087 133.369 40.1791 133.059 39.797C132.75 39.41 132.276 39.2166 131.637 39.2166C131.163 39.2166 130.723 39.3399 130.317 39.5866C129.911 39.8284 129.548 40.1621 129.229 40.5878V46H128.539ZM141.504 46C141.383 46 141.313 45.9371 141.294 45.8114L141.221 44.6723C140.902 45.1076 140.527 45.4535 140.097 45.7098C139.671 45.9661 139.192 46.0943 138.66 46.0943C137.775 46.0943 137.084 45.7872 136.585 45.1729C136.092 44.5587 135.845 43.6373 135.845 42.4088C135.845 41.8816 135.913 41.3907 136.049 40.936C136.189 40.4765 136.392 40.0799 136.658 39.7462C136.929 39.4076 137.258 39.1416 137.645 38.9481C138.036 38.7547 138.486 38.6579 138.994 38.6579C139.483 38.6579 139.906 38.7498 140.264 38.9336C140.622 39.1126 140.931 39.3762 141.192 39.7244V35.444H141.889V46H141.504ZM138.856 45.5357C139.335 45.5357 139.768 45.4123 140.155 45.1657C140.542 44.919 140.888 44.5756 141.192 44.1355V40.3266C140.912 39.9155 140.602 39.6253 140.264 39.456C139.93 39.2867 139.55 39.2021 139.125 39.2021C138.699 39.2021 138.327 39.2795 138.007 39.4342C137.688 39.589 137.42 39.8091 137.202 40.0944C136.989 40.375 136.827 40.7135 136.716 41.1101C136.61 41.5019 136.556 41.9348 136.556 42.4088C136.556 43.4825 136.755 44.2733 137.151 44.7812C137.548 45.2842 138.116 45.5357 138.856 45.5357ZM147.06 38.6652C147.578 38.6652 148.04 38.7547 148.446 38.9336C148.857 39.1077 149.203 39.3568 149.483 39.6809C149.764 40.005 149.977 40.3967 150.122 40.8562C150.272 41.3109 150.347 41.8211 150.347 42.387C150.347 42.9529 150.272 43.4632 150.122 43.9178C149.977 44.3725 149.764 44.7618 149.483 45.0859C149.203 45.4099 148.857 45.659 148.446 45.8331C148.04 46.0073 147.578 46.0943 147.06 46.0943C146.543 46.0943 146.078 46.0073 145.667 45.8331C145.261 45.659 144.915 45.4099 144.63 45.0859C144.349 44.7618 144.134 44.3725 143.984 43.9178C143.839 43.4632 143.766 42.9529 143.766 42.387C143.766 41.8211 143.839 41.3109 143.984 40.8562C144.134 40.3967 144.349 40.005 144.63 39.6809C144.915 39.3568 145.261 39.1077 145.667 38.9336C146.078 38.7547 146.543 38.6652 147.06 38.6652ZM147.06 45.5502C147.491 45.5502 147.865 45.4776 148.185 45.3325C148.509 45.1826 148.777 44.9698 148.99 44.6941C149.208 44.4184 149.37 44.0871 149.476 43.7002C149.583 43.3084 149.636 42.8707 149.636 42.387C149.636 41.9082 149.583 41.4729 149.476 41.0811C149.37 40.6893 149.208 40.3556 148.99 40.0799C148.777 39.7994 148.509 39.5842 148.185 39.4342C147.865 39.2843 147.491 39.2093 147.06 39.2093C146.63 39.2093 146.252 39.2843 145.928 39.4342C145.609 39.5842 145.341 39.7994 145.123 40.0799C144.91 40.3556 144.748 40.6893 144.637 41.0811C144.531 41.4729 144.477 41.9082 144.477 42.387C144.477 42.8707 144.531 43.3084 144.637 43.7002C144.748 44.0871 144.91 44.4184 145.123 44.6941C145.341 44.9698 145.609 45.1826 145.928 45.3325C146.252 45.4776 146.63 45.5502 147.06 45.5502Z" fill="#666947"/>
<path d="M67.2999 4.14942C68.9706 3.79345 70.6895 3.76602 72.3897 3.82391C74.5708 3.9463 76.7655 4.31598 78.7836 5.18028C80.4913 5.9029 82.0397 7.04548 83.1457 8.54302C84.2943 10.0614 84.9794 11.9184 85.0987 13.8182C85.1541 14.3392 85.1343 14.8643 85.1353 15.3878C85.0774 16.4268 84.9997 17.4678 84.795 18.49C84.7412 18.8572 84.627 19.2116 84.5762 19.5793C84.2527 19.5001 83.9064 19.592 83.6357 19.7763C83.3645 19.9602 83.1721 20.2303 82.9573 20.472C82.9542 18.7749 82.8725 17.0397 82.3037 15.4244C82.1158 14.9003 81.6857 14.3529 81.0799 14.3524C79.6204 14.2458 78.1676 14.0579 76.729 13.7902C76.4822 13.2316 76.2745 12.6563 76.0383 12.0926C75.8631 11.664 75.6514 11.2121 75.2477 10.9536C74.7221 10.6032 74.0122 10.6388 73.4658 10.9236C72.9935 11.1781 72.7259 11.7174 72.7355 12.245C72.5111 11.8829 72.1967 11.5701 71.7991 11.4045C71.2293 11.1598 70.5194 11.21 70.0263 11.6031C69.6638 11.8809 69.4713 12.3435 69.4891 12.7959C69.4713 13.1458 69.5708 13.4835 69.682 13.8106C69.2712 13.6359 68.8365 13.5277 68.4206 13.3682C67.1374 12.9117 65.9374 12.1937 64.9863 11.2131C64.3404 10.5748 63.7868 9.84809 63.3176 9.07165C63.4603 10.5408 63.114 12.0561 62.3508 13.3195C62.0862 13.7577 61.7962 14.1808 61.4875 14.589C61.0706 15.1319 60.611 15.661 60.3616 16.308C60.0174 17.2083 59.9605 18.1818 59.8747 19.1329C59.8356 19.4595 59.8528 19.789 59.8356 20.1171C59.6522 19.9439 59.4841 19.7413 59.246 19.6418C59.0225 19.5382 58.7702 19.5285 58.529 19.5519C58.5173 19.524 58.4934 19.4681 58.4812 19.4402C58.2385 18.357 58.0795 17.254 58.0145 16.146C57.9145 14.91 57.9617 13.6562 58.2197 12.441C58.5229 11.0105 59.1571 9.64802 60.0874 8.51762C60.6049 7.89555 61.2153 7.3329 61.945 6.97083C62.1542 6.86063 62.3883 6.8195 62.6194 6.78497C62.7865 6.20809 63.2719 5.80235 63.7467 5.47278C64.8187 4.78266 66.0583 4.39876 67.2999 4.14942Z" fill="#E8C67D"/>
<path d="M63.8163 10.7048C63.992 10.8704 64.1307 11.0694 64.2998 11.2411C65.1915 12.2481 66.3082 13.0535 67.5437 13.5841C67.8209 13.7126 68.1099 13.8116 68.3943 13.9223C68.0469 14.0518 67.7305 14.29 67.5721 14.6323C67.302 15.2228 67.3837 15.9257 67.6772 16.4919C68.1525 17.4364 68.7025 18.3449 69.1174 19.3189C69.5399 20.3462 69.6272 21.4628 69.8065 22.5475C69.9659 23.5489 70.1452 24.562 70.5591 25.4954C70.8145 26.119 71.1542 26.7035 71.5315 27.2605C70.9282 27.4606 70.2549 27.4926 69.6531 27.2682C69.485 27.192 69.2601 27.2285 69.1595 27.3931C69.0818 27.553 69.1255 27.7511 69.2332 27.8872C69.3896 28.0873 69.6298 28.2005 69.8679 28.2721C70.6159 28.4945 71.4366 28.3853 72.1373 28.0583C72.4689 28.4285 72.7767 28.8221 73.1464 29.1562C73.4226 29.4233 73.7502 29.6346 73.999 29.9301C74.2118 30.1713 74.3956 30.444 74.4966 30.7523C74.7825 31.6074 75.0842 32.457 75.3711 33.3116C75.2416 33.467 75.0395 33.6011 75.0309 33.822C75.0684 34.1069 75.236 34.3526 75.3056 34.6294C74.4723 35.222 73.5201 35.641 72.5294 35.8888C71.9667 36.0122 71.3944 36.1209 70.816 36.1071C69.0407 36.165 67.3146 35.4902 65.8618 34.5075C65.1879 34.0419 64.5501 33.5254 63.9326 32.9882C62.4813 31.6765 61.4454 29.9387 60.8644 28.0781C60.6984 27.5302 60.5816 26.967 60.5023 26.3998C60.2982 26.4039 60.093 26.4704 59.8899 26.416C59.4395 26.3323 59.1094 25.9646 58.9007 25.5782C58.6016 25.013 58.4477 24.3848 58.3309 23.7597C58.2025 23.0228 58.1039 22.2794 58.0801 21.5314C58.0872 21.0992 58.138 20.6148 58.4569 20.2913C58.6321 20.1039 58.9378 20.1202 59.1384 20.2578C59.4649 20.4543 59.6594 20.7905 59.8914 21.0805C59.9524 21.147 60.027 21.2511 60.1316 21.2145C60.2454 21.1429 60.3109 21.0139 60.3226 20.8824C60.3693 20.4726 60.3439 20.0592 60.3642 19.6484C60.4338 18.7313 60.4917 17.8066 60.7055 16.9083C60.8233 16.4121 61.0899 15.9678 61.3971 15.5666C61.8724 14.9369 62.3752 14.324 62.7799 13.6446C63.3202 12.7473 63.6594 11.7382 63.8163 10.7048ZM64.6908 17.3379C63.9631 17.4486 63.2455 17.735 62.7012 18.2408C62.5722 18.3591 62.4483 18.5074 62.4376 18.6907C62.4102 18.8928 62.5839 19.1025 62.7916 19.0975C63.0282 19.1269 63.2171 18.9619 63.405 18.8466C64.3962 18.1875 65.711 18.0336 66.8221 18.4673C67.0089 18.5317 67.2385 18.6171 67.4177 18.4886C67.6132 18.3479 67.6097 18.0503 67.4655 17.8746C67.2918 17.6614 67.0115 17.5923 66.7632 17.5065C66.0984 17.2841 65.3824 17.2495 64.6908 17.3379ZM67.6874 22.2088C67.5757 22.2337 67.4995 22.3276 67.4127 22.3952C66.8881 22.8619 66.1756 23.0691 65.483 23.0731C64.7223 23.0878 63.924 22.8664 63.3654 22.3302C63.2288 22.1819 62.9266 22.1997 62.8586 22.4094C62.8149 22.5953 62.8302 22.8025 62.9307 22.969C63.1714 23.4255 63.6589 23.6759 64.1205 23.8577C64.9498 24.1476 65.8755 24.1395 66.7083 23.8673C67.1608 23.713 67.5863 23.4489 67.888 23.0736C68.0484 22.8771 68.1221 22.609 68.0632 22.3601C67.9905 22.2286 67.828 22.1794 67.6874 22.2088ZM70.3341 30.6532C69.6267 30.7203 68.9117 30.8833 68.2968 31.2509C68.1348 31.3464 67.9525 31.4784 67.957 31.6887C67.92 31.8816 68.0677 32.1076 68.2764 32.0969C68.4369 32.1137 68.5893 32.0533 68.7355 31.9959C69.3794 31.743 70.0741 31.6196 70.7657 31.6369C71.4122 31.6176 72.0612 31.7384 72.6614 31.9776C72.8523 32.0502 73.0666 32.132 73.2693 32.0538C73.479 31.9807 73.6136 31.7293 73.5267 31.518C73.4627 31.3362 73.2835 31.2382 73.1189 31.1626C72.2506 30.7716 71.2873 30.5669 70.3341 30.6532Z" fill="#E8C67D"/>
<path d="M73.6605 11.4722C73.8748 11.3478 74.1226 11.2716 74.3714 11.2716C74.7645 11.2569 75.1469 11.5083 75.3104 11.8627C75.4815 12.209 75.6217 12.5696 75.7644 12.9281C76.5951 15.0015 77.4335 17.0708 78.2938 19.132C78.5365 19.6942 78.7848 20.2548 79.0661 20.7992C79.1535 20.9602 79.2601 21.1379 79.4485 21.1907C79.476 21.144 79.5008 21.0958 79.5227 21.0465C79.7228 20.1477 79.447 19.2219 79.6415 18.3221C79.7481 17.8224 79.9949 17.3136 80.4459 17.0409C80.7953 16.8225 81.3615 16.9119 81.5275 17.3217C81.7078 17.7899 81.6159 18.3008 81.5859 18.7867C81.5844 19.2783 81.5458 19.7699 81.5788 20.2609C81.5722 21.0181 81.784 21.7508 81.8779 22.4963C81.9505 23.5317 81.8119 24.5656 81.6702 25.5894C81.5849 26.217 81.4392 26.8356 81.3848 27.4673C81.3747 27.7913 81.3757 28.1163 81.3838 28.4402C81.4402 28.9668 81.5788 29.4828 81.7687 29.9759C81.8576 30.2166 81.9485 30.4583 81.9947 30.7117C80.8521 30.9311 79.7415 31.2896 78.6589 31.7116C77.8119 32.0543 76.9735 32.4261 76.1828 32.8856C76.0929 32.9384 76 32.9857 75.9025 33.0222C75.5953 32.1813 75.3195 31.3297 75.0158 30.4877C74.8909 30.1495 74.6802 29.852 74.4496 29.5783C74.1515 29.2136 73.7407 28.9689 73.4208 28.6266C72.7388 27.8938 72.072 27.1367 71.5561 26.2744C71.1905 25.6346 70.8843 24.9556 70.6969 24.2416C70.3699 23.0173 70.2515 21.7518 70.0113 20.5107C69.857 19.7135 69.5635 18.9497 69.1856 18.2327C68.8926 17.6513 68.5844 17.0769 68.2721 16.5056C68.0867 16.1461 67.9115 15.7551 67.9395 15.3407C67.9583 15.0827 68.0334 14.8075 68.2376 14.6338C68.496 14.4079 68.8642 14.3799 69.1912 14.414C69.4395 14.4322 69.6351 14.6105 69.7823 14.7963C70.2221 15.3651 70.5435 16.012 70.8751 16.6468C71.1245 17.1419 71.3824 17.6325 71.6231 18.1322C71.8821 18.675 72.1848 19.195 72.4661 19.7262C72.554 19.8821 72.6499 20.0542 72.8165 20.137C72.9541 20.1766 73.0917 20.0354 73.1024 19.9039C73.1009 19.7384 73.0267 19.584 72.9592 19.4362C72.1071 17.865 71.3758 16.2329 70.6278 14.611C70.4049 14.1052 70.1429 13.6035 70.0677 13.0495C70.0256 12.729 70.0596 12.367 70.2942 12.1227C70.5547 11.8322 70.9848 11.7825 71.3489 11.8566C71.8176 11.9638 72.1777 12.3406 72.3823 12.7605C72.7754 13.5537 73.1862 14.3383 73.5472 15.1462C74.0063 16.138 74.4242 17.1475 74.8544 18.1515C74.9813 18.4313 75.0925 18.7192 75.2398 18.9893C75.321 19.1432 75.4851 19.2956 75.6735 19.2382C75.7217 19.1986 75.7908 19.1569 75.7928 19.0868C75.8314 18.8055 75.6481 18.5674 75.5485 18.3195C75.0585 17.1648 74.5806 16.0044 74.0992 14.8456C73.7758 14.0168 73.3878 13.1896 73.3182 12.2903C73.2933 11.9871 73.3853 11.6388 73.6605 11.4722Z" fill="#E8C67D"/>
<path d="M76.957 14.3809C78.35 14.6256 79.7556 14.8196 81.1678 14.8932C81.4182 14.9395 81.5974 15.1512 81.7107 15.366C81.8473 15.6387 81.9331 15.9337 82.0113 16.2278C82.2667 17.215 82.384 18.2336 82.413 19.2508C82.4688 19.9094 82.4343 20.5706 82.449 21.2302C82.45 21.3882 82.4897 21.543 82.5511 21.6883C82.676 21.6868 82.8284 21.7086 82.8939 21.5735C83.2341 21.0545 83.5489 20.4457 84.1512 20.1897C84.3858 20.0805 84.6118 20.2842 84.7123 20.4822C85.0109 20.9662 84.9388 21.5542 84.9266 22.095C84.8322 23.1452 84.6809 24.208 84.2751 25.1886C84.0766 25.6299 83.8227 26.1012 83.3631 26.3139C83.0813 26.4587 82.7537 26.4607 82.4485 26.4043C82.3845 26.6161 82.3845 26.8405 82.3338 27.0554C82.2352 27.5119 82.1134 27.9659 81.9498 28.4036C81.8254 27.4377 82.1205 26.4922 82.2296 25.5405C82.3713 24.3518 82.5689 23.1401 82.3368 21.9488C82.2124 21.377 82.121 20.7966 82.0915 20.2121C82.0885 19.6875 82.0778 19.1629 82.1332 18.6409C82.1327 18.1661 82.1941 17.675 82.0387 17.217C81.9432 16.9103 81.7193 16.6416 81.4238 16.5116C80.9972 16.3161 80.4736 16.3669 80.0887 16.634C79.4956 17.0337 79.1818 17.7355 79.0838 18.4251C79.0218 18.7729 79.0528 19.1269 79.0391 19.4778C78.7643 18.9304 78.5582 18.3514 78.321 17.7873C77.8609 16.6538 77.4156 15.5148 76.957 14.3809Z" fill="#E8C67D"/>
<path d="M64.5716 34.2688C65.2059 34.7467 65.8503 35.2169 66.5546 35.5891C67.5022 36.0964 68.532 36.462 69.599 36.6113C71.6251 36.884 73.727 36.3554 75.4312 35.2397C75.4556 35.2265 75.5033 35.2001 75.5277 35.1869C75.7902 35.8247 76.0253 36.4737 76.2533 37.1252C76.2696 37.1974 76.3229 37.2781 76.2752 37.3507C75.8151 38.1465 75.1433 38.8152 74.3511 39.2814C73.6315 39.7197 72.8114 39.9675 71.9837 40.0975C71.193 40.2112 70.3886 40.2066 69.5924 40.162C68.4467 40.0335 67.3113 39.6861 66.3388 39.0565C65.7238 38.6522 65.1734 38.1277 64.8159 37.4792C64.6854 37.2278 64.566 36.9551 64.5706 36.6667C64.5711 35.8674 64.5691 35.0681 64.5716 34.2688Z" fill="#E8C67D"/>
<path d="M63.3173 9.07153C63.7866 9.84798 64.3401 10.5747 64.986 11.213C65.9371 12.1936 67.1371 12.9116 68.4203 13.3681C68.8362 13.5276 69.2709 13.6358 69.6818 13.8104C69.5705 13.4834 69.471 13.1457 69.4888 12.7958C69.471 12.3434 69.6635 11.8808 70.0261 11.603C70.5191 11.2099 71.2291 11.1597 71.7988 11.4044C72.1964 11.57 72.5108 11.8828 72.7352 12.2449C72.7256 11.7172 72.9932 11.1779 73.4655 10.9235C74.0119 10.6386 74.7218 10.6031 75.2474 10.9535C75.6511 11.212 75.8628 11.6639 76.038 12.0925C76.2742 12.6562 76.4819 13.2315 76.7287 13.7901C78.1673 14.0577 79.6202 14.2456 81.0796 14.3523C81.6854 14.3528 82.1155 14.9002 82.3034 15.4243C82.8722 17.0396 82.9539 18.7748 82.957 20.4719C83.1718 20.2302 83.3643 19.96 83.6354 19.7762C83.9061 19.5919 84.2524 19.5 84.5759 19.5792C84.9573 19.7168 85.2259 20.0728 85.3625 20.4435C85.4961 20.8568 85.5362 21.2991 85.5052 21.7313C85.4859 22.5372 85.3615 23.338 85.1949 24.1256C85.0253 24.8599 84.7811 25.5957 84.3352 26.2117C84.1067 26.5149 83.8086 26.781 83.4445 26.9049C83.2739 26.9668 83.09 26.9709 82.9143 27.0105C82.764 27.8337 82.4995 28.632 82.1856 29.4059C82.2877 29.7984 82.4512 30.1777 82.5462 30.5749C82.5558 30.6673 82.6264 30.7247 82.7021 30.7683C83.0103 30.9547 83.1992 31.2756 83.3678 31.5839C83.7954 32.4268 84.2062 33.2784 84.6262 34.126C84.8278 34.5185 85.0019 34.9278 85.2223 35.3097C86.2679 35.6606 87.2983 36.0993 88.1895 36.7605C89.1198 37.4379 89.9023 38.3317 90.4 39.3732C90.8971 40.3736 91.1602 41.469 91.3791 42.5592C91.5294 43.3448 91.6045 44.1416 91.6832 44.9368C91.698 45.3248 91.7746 45.7117 91.7361 46.1012C91.703 46.1875 91.6127 46.1845 91.536 46.186C78.5355 46.186 65.5355 46.184 52.535 46.187C52.3516 46.1865 52.1653 46.2018 51.985 46.1591C51.8916 45.86 51.9723 45.5492 51.9835 45.2461C52.1135 44.2584 52.3268 43.2783 52.6721 42.3424C53.0423 41.3308 53.6024 40.3782 54.3717 39.618C54.9984 38.9705 55.7479 38.4581 56.5238 38.0077C58.3733 36.9372 60.4269 36.3015 62.4546 35.6641C62.9715 35.5001 63.4966 35.3595 64.012 35.1919C64.009 34.7399 64.0161 34.2875 64.0075 33.8355C61.9462 32.1034 60.5355 29.6359 60.0267 26.9968C59.3919 26.9943 58.8455 26.5692 58.5322 26.0431C57.9518 25.0961 57.7868 23.9728 57.6324 22.8927C57.542 22.0741 57.416 21.223 57.6725 20.4211C57.8152 20.0337 58.1001 19.635 58.5287 19.5518C58.7699 19.5284 59.0223 19.5381 59.2457 19.6417C59.4839 19.7412 59.6519 19.9438 59.8353 20.117C59.8525 19.7889 59.8353 19.4593 59.8744 19.1328C59.9602 18.1817 60.0171 17.2082 60.3614 16.3079C60.6107 15.6609 61.0703 15.1318 61.4872 14.5889C61.7959 14.1806 62.0859 13.7576 62.3505 13.3194C63.1137 12.0559 63.46 10.5406 63.3173 9.07153ZM63.816 10.7047C63.6591 11.7381 63.3199 12.7471 62.7796 13.6444C62.3748 14.3238 61.8721 14.9368 61.3968 15.5665C61.0896 15.9676 60.823 16.412 60.7052 16.9081C60.4914 17.8064 60.4335 18.7311 60.3639 19.6483C60.3436 20.0591 60.369 20.4724 60.3223 20.8822C60.3106 21.0138 60.2451 21.1427 60.1313 21.2143C60.0267 21.2509 59.9521 21.1468 59.8911 21.0803C59.6591 20.7903 59.4646 20.4542 59.138 20.2576C58.9375 20.12 58.6318 20.1038 58.4566 20.2911C58.1377 20.6146 58.0869 21.0991 58.0798 21.5312C58.1036 22.2792 58.2021 23.0227 58.3306 23.7595C58.4474 24.3846 58.6013 25.0128 58.9004 25.578C59.1091 25.9644 59.4392 26.3321 59.8896 26.4159C60.0927 26.4702 60.2979 26.4037 60.502 26.3996C60.5812 26.9668 60.698 27.53 60.8641 28.0779C61.445 29.9386 62.481 31.6763 63.9323 32.988C64.5498 33.5252 65.1876 34.0417 65.8615 34.5074C67.3143 35.49 69.0404 36.1649 70.8157 36.107C71.3941 36.1207 71.9664 36.012 72.5291 35.8886C73.5198 35.6408 74.472 35.2218 75.3053 34.6292C75.2357 34.3525 75.0681 34.1067 75.0305 33.8218C75.0392 33.6009 75.2413 33.4668 75.3708 33.3115C75.0839 32.4568 74.7822 31.6072 74.4963 30.7521C74.3953 30.4438 74.2114 30.1711 73.9987 29.9299C73.7498 29.6344 73.4223 29.4231 73.1461 29.156C72.7764 28.8219 72.4686 28.4283 72.137 28.0581C71.4362 28.3852 70.6156 28.4943 69.8676 28.2719C69.6294 28.2003 69.3893 28.0871 69.2328 27.887C69.1252 27.7509 69.0815 27.5529 69.1592 27.3929C69.2598 27.2284 69.4847 27.1918 69.6528 27.268C70.2546 27.4924 70.9279 27.4604 71.5312 27.2604C71.1539 26.7033 70.8142 26.1188 70.5587 25.4952C70.1449 24.5618 69.9656 23.5488 69.8062 22.5474C69.6269 21.4627 69.5396 20.346 69.1171 19.3187C68.7022 18.3447 68.1522 17.4362 67.6769 16.4917C67.3834 15.9255 67.3016 15.2227 67.5718 14.6321C67.7302 14.2898 68.0466 14.0517 68.3939 13.9222C68.1096 13.8115 67.8206 13.7124 67.5434 13.584C66.3078 13.0533 65.1912 12.2479 64.2994 11.2409C64.1303 11.0693 63.9917 10.8702 63.816 10.7047ZM73.66 11.472C73.3847 11.6385 73.2928 11.9869 73.3177 12.29C73.3873 13.1894 73.7752 14.0166 74.0987 14.8454C74.5801 16.0042 75.058 17.1645 75.548 18.3193C75.6475 18.5671 75.8309 18.8053 75.7923 19.0866C75.7902 19.1567 75.7212 19.1983 75.6729 19.2379C75.4845 19.2953 75.3205 19.143 75.2393 18.9891C75.092 18.719 74.9808 18.431 74.8538 18.1512C74.4237 17.1473 74.0058 16.1377 73.5467 15.146C73.1857 14.3381 72.7748 13.5535 72.3818 12.7603C72.1771 12.3403 71.8171 11.9635 71.3484 11.8564C70.9843 11.7822 70.5542 11.832 70.2937 12.1225C70.0591 12.3667 70.025 12.7288 70.0672 13.0492C70.1423 13.6033 70.4044 14.105 70.6273 14.6108C71.3753 16.2327 72.1066 17.8648 72.9587 19.436C73.0262 19.5838 73.1003 19.7381 73.1019 19.9037C73.0912 20.0352 72.9536 20.1764 72.816 20.1368C72.6494 20.054 72.5534 19.8818 72.4656 19.7259C72.1843 19.1948 71.8816 18.6748 71.6226 18.1319C71.3819 17.6322 71.1239 17.1417 70.8746 16.6466C70.543 16.0118 70.2216 15.3649 69.7818 14.7961C69.6345 14.6102 69.439 14.432 69.1907 14.4137C68.8637 14.3797 68.4955 14.4076 68.237 14.6336C68.0329 14.8073 67.9577 15.0825 67.9389 15.3405C67.911 15.7549 68.0862 16.1459 68.2716 16.5054C68.5839 17.0767 68.8921 17.651 69.1851 18.2325C69.5629 18.9495 69.8564 19.7133 70.0108 20.5105C70.251 21.7516 70.3693 23.0171 70.6964 24.2414C70.8837 24.9554 71.19 25.6343 71.5556 26.2742C72.0715 27.1365 72.7383 27.8936 73.4203 28.6264C73.7402 28.9686 74.151 29.2134 74.4491 29.578C74.6796 29.8517 74.8904 30.1493 75.0153 30.4875C75.319 31.3295 75.5947 32.1811 75.902 33.022C75.9995 32.9854 76.0924 32.9382 76.1823 32.8854C76.9729 32.4258 77.8113 32.0541 78.6584 31.7113C79.741 31.2893 80.8516 30.9308 81.9942 30.7115C81.948 30.4581 81.8571 30.2163 81.7682 29.9756C81.5783 29.4825 81.4396 28.9666 81.3833 28.44C81.3752 28.116 81.3741 27.791 81.3843 27.467C81.4386 26.8353 81.5844 26.2168 81.6697 25.5891C81.8114 24.5654 81.95 23.5315 81.8774 22.4961C81.7834 21.7506 81.5717 21.0178 81.5783 20.2607C81.5453 19.7696 81.5839 19.2781 81.5854 18.7865C81.6153 18.3005 81.7073 17.7897 81.527 17.3215C81.3609 16.9117 80.7947 16.8223 80.4453 17.0406C79.9944 17.3133 79.7476 17.8222 79.641 18.3218C79.4465 19.2217 79.7222 20.1474 79.5221 21.0463C79.5003 21.0955 79.4754 21.1438 79.448 21.1905C79.2596 21.1377 79.153 20.9599 79.0656 20.799C78.7843 20.2546 78.536 19.694 78.2932 19.1318C77.433 17.0706 76.5946 15.0013 75.7638 12.9279C75.6211 12.5693 75.481 12.2088 75.3098 11.8625C75.1463 11.508 74.7639 11.2567 74.3709 11.2714C74.1221 11.2714 73.8743 11.3475 73.66 11.472ZM76.9567 14.3807C77.4152 15.5147 77.8606 16.6537 78.3207 17.7871C78.5578 18.3513 78.764 18.9302 79.0387 19.4776C79.0524 19.1267 79.0214 18.7728 79.0834 18.4249C79.1814 17.7353 79.4952 17.0335 80.0884 16.6339C80.4733 16.3668 80.9968 16.316 81.4234 16.5115C81.7189 16.6415 81.9429 16.9101 82.0384 17.2168C82.1937 17.6749 82.1323 18.1659 82.1328 18.6408C82.0775 19.1628 82.0881 19.6874 82.0912 20.2119C82.1206 20.7964 82.212 21.3768 82.3364 21.9486C82.5685 23.14 82.371 24.3516 82.2293 25.5404C82.1201 26.492 81.8251 27.4376 81.9495 28.4034C82.113 27.9657 82.2349 27.5117 82.3334 27.0552C82.3842 26.8404 82.3842 26.6159 82.4482 26.4042C82.7534 26.4606 83.0809 26.4585 83.3627 26.3138C83.8223 26.101 84.0762 25.6298 84.2748 25.1885C84.6805 24.2079 84.8318 23.145 84.9263 22.0949C84.9385 21.5541 85.0106 20.966 84.712 20.4821C84.6114 20.284 84.3855 20.0804 84.1509 20.1896C83.5486 20.4455 83.2337 21.0544 82.8935 21.5734C82.828 21.7084 82.6757 21.6866 82.5507 21.6881C82.4893 21.5429 82.4497 21.388 82.4487 21.2301C82.4339 20.5704 82.4685 19.9093 82.4126 19.2506C82.3837 18.2335 82.2664 17.2148 82.0109 16.2276C81.9327 15.9336 81.8469 15.6386 81.7103 15.3659C81.5971 15.1511 81.4178 14.9393 81.1675 14.8931C79.7552 14.8195 78.3496 14.6255 76.9567 14.3807ZM64.5711 34.2687C64.5686 35.068 64.5706 35.8673 64.5701 36.6666C64.5655 36.955 64.6849 37.2277 64.8154 37.4791C65.1729 38.1275 65.7234 38.6521 66.3383 39.0563C67.3108 39.686 68.4462 40.0334 69.5919 40.1618C70.3881 40.2065 71.1925 40.2111 71.9832 40.0973C72.8109 39.9674 73.631 39.7195 74.3506 39.2813C75.1428 38.8151 75.8146 38.1463 76.2747 37.3506C76.3224 37.278 76.2691 37.1972 76.2528 37.1251C76.0248 36.4736 75.7897 35.8246 75.5272 35.1868C75.5028 35.2 75.4551 35.2264 75.4307 35.2396C73.7265 36.3553 71.6246 36.8839 69.5985 36.6112C68.5316 36.4619 67.5017 36.0963 66.5541 35.589C65.8498 35.2168 65.2054 34.7465 64.5711 34.2687Z" fill="#666947"/>
<path d="M64.6906 17.3377C65.3822 17.2494 66.0983 17.2839 66.763 17.5063C67.0113 17.5921 67.2916 17.6612 67.4653 17.8745C67.6095 18.0502 67.6131 18.3478 67.4175 18.4884C67.2383 18.6169 67.0088 18.5316 66.8219 18.4671C65.7108 18.0334 64.3961 18.1873 63.4048 18.8464C63.2169 18.9617 63.028 19.1267 62.7914 19.0973C62.5837 19.1024 62.41 18.8926 62.4374 18.6905C62.4481 18.5072 62.572 18.3589 62.701 18.2406C63.2454 17.7348 63.9629 17.4484 64.6906 17.3377Z" fill="#666947"/>
<path d="M67.6868 22.2087C67.8275 22.1792 67.99 22.2285 68.0626 22.36C68.1215 22.6088 68.0479 22.877 67.8874 23.0735C67.5858 23.4488 67.1602 23.7128 66.7078 23.8672C65.875 24.1394 64.9492 24.1475 64.12 23.8575C63.6584 23.6758 63.1709 23.4254 62.9302 22.9689C62.8296 22.8023 62.8144 22.5951 62.858 22.4093C62.9261 22.1995 63.2282 22.1818 63.3648 22.3301C63.9234 22.8663 64.7217 23.0877 65.4824 23.073C66.1751 23.0689 66.8875 22.8617 67.4121 22.3951C67.4989 22.3275 67.5751 22.2336 67.6868 22.2087Z" fill="#666947"/>
<path d="M70.3339 30.6531C71.2871 30.5668 72.2504 30.7714 73.1188 31.1624C73.2833 31.2381 73.4626 31.3361 73.5266 31.5179C73.6134 31.7292 73.4788 31.9805 73.2691 32.0537C73.0665 32.1319 72.8522 32.0501 72.6613 31.9775C72.061 31.7383 71.412 31.6174 70.7656 31.6367C70.0739 31.6195 69.3793 31.7429 68.7354 31.9958C68.5891 32.0531 68.4368 32.1136 68.2763 32.0968C68.0676 32.1075 67.9198 31.8815 67.9569 31.6885C67.9523 31.4783 68.1346 31.3463 68.2966 31.2508C68.9116 30.8832 69.6266 30.7201 70.3339 30.6531Z" fill="#666947"/>
</svg>
